# xmcd CD database file
#
# Track frame offsets:
#	150
#	22177
#	44072
#	67272
#	89742
#
# Disc length: 1901 seconds
#
# Revision: 0
# Processed by: cddbd v1.5PL3 Copyright (c) Steve Scherf et al.
# Submitted via: CDex 1.51
#
DISCID=4e076b05
DTITLE=LOVE JETS - UFO神社
DYEAR=2003
DGENRE=Rock
TTITLE0=UFO神社
TTITLE1=UFO神社(カラオケ)
TTITLE2=Space Disco
TTITLE3=Space Disco (Spoozys Mix)
TTITLE4=Space Disco (Disco Killarz Club Mix)
EXTD=YEAR: 2003
EXTT0=
EXTT1=
EXTT2=
EXTT3=
EXTT4=
PLAYORDER=
